<svg width="96.00" height="24.00" viewBox="27.50 39.00 96.00 24.00" fill="none" xmlns="http://www.w3.org/2000/svg">
<g clip-path="url(#clip0_1_1392)">
<path d="M44.0248 61.5738C42.7873 62.7845 41.4219 62.5958 40.1204 62.0249C38.7368 61.4426 37.4718 61.4058 36.0106 62.0249C34.1908 62.8167 33.225 62.5866 32.129 61.5738C25.9413 55.1519 26.8546 45.3695 33.8871 45.0012C35.5927 45.0933 36.7869 45.9518 37.7915 46.0232C39.2848 45.717 40.7141 44.8401 42.3124 44.9551C44.2326 45.1117 45.6688 45.8758 46.6278 47.25C42.6777 49.6438 43.6139 54.8918 47.242 56.3649C46.5159 58.2869 45.5843 60.1858 44.0226 61.5899L44.0248 61.5738ZM37.6545 44.9321C37.4696 42.078 39.7643 39.7302 42.4037 39.5C42.7668 42.7915 39.4355 45.2544 37.6545 44.9321Z" fill="white"/>
<path d="M50.3467 62.1678H53.3119V46.5626H53.4136L59.7364 62.1678H62.1492L68.472 46.5626H68.5738V62.1678H71.5389V41.0238H67.7889L60.9864 57.9038H60.8992L54.1113 41.0238H50.3467V62.1678Z" fill="white"/>
<path d="M79.743 62.5C82.0688 62.5 83.6241 61.4303 84.4236 59.877H84.4963V62.1923H87.6505V46.7769H84.4963V55.7741C84.4963 58.1772 83.0718 59.7745 80.8623 59.7745C78.6819 59.7745 77.6063 58.4849 77.6063 56.1551V46.7769H74.4666V56.7705C74.4666 60.3166 76.3853 62.5 79.743 62.5Z" fill="white"/>
<path d="M95.8711 62.5C99.4691 62.5 102.081 60.5694 102.081 57.7613V57.7467C102.081 55.5382 100.891 54.2951 97.7717 53.5638L95.2908 52.9934C93.6514 52.5985 93.0275 51.955 93.0275 51.0043V50.9897C93.0275 49.7612 94.0866 48.9567 95.7696 48.9567C97.5396 48.9567 98.5841 49.8928 98.7727 51.2383L98.7873 51.3407H101.732L101.718 51.1652C101.558 48.5472 99.3821 46.5143 95.7696 46.5143C92.2586 46.5143 89.8792 48.401 89.8792 51.1506V51.1652C89.8792 53.4029 91.3156 54.807 94.2172 55.4797L96.7126 56.0501C98.352 56.445 98.9033 57.0154 98.9033 58.01V58.0246C98.9033 59.2678 97.7717 60.0575 95.8856 60.0575C93.956 60.0575 92.9115 59.2239 92.6213 57.8052L92.5923 57.6589H89.4875L89.5021 57.7906C89.8212 60.5987 92.0555 62.5 95.8711 62.5Z" fill="white"/>
<path d="M105.701 44.3048C106.736 44.3048 107.538 43.4818 107.538 42.4825C107.538 41.4685 106.736 40.6455 105.701 40.6455C104.68 40.6455 103.864 41.4685 103.864 42.4825C103.864 43.4818 104.68 44.3048 105.701 44.3048ZM104.126 62.1457H107.275V46.6856H104.126V62.1457Z" fill="white"/>
<path d="M116.426 62.5C120.098 62.5 122.652 60.1301 122.986 57.0432L123 56.9408H119.982L119.967 57.0579C119.59 58.7256 118.356 59.8521 116.426 59.8521C114.003 59.8521 112.392 57.8771 112.392 54.5123V54.4977C112.392 51.2061 113.974 49.1579 116.412 49.1579C118.458 49.1579 119.619 50.4307 119.953 51.9375L119.982 52.0546H122.971L122.957 51.9522C122.695 49.0555 120.315 46.51 116.383 46.51C112.029 46.51 109.185 49.5968 109.185 54.4685V54.4831C109.185 59.4132 111.971 62.5 116.426 62.5Z" fill="white"/>
</g>
<defs>
<clipPath id="clip0_1_1392">
<rect width="95" height="23" fill="white" transform="translate(28 39.5)"/>
</clipPath>
</defs>
</svg>
