<svg width="110.00" height="23.00" viewBox="20.50 38.50 110.00 23.00" fill="none" xmlns="http://www.w3.org/2000/svg" xmlns:xlink="http://www.w3.org/1999/xlink">
<path d="M61.0078 39.7069H65.1391L72.1636 52.4336L79.1881 39.7069H83.2297V60.6194H79.8591V44.5915L73.6996 55.6901H70.5379L64.3784 44.5915V60.6194H61.0078V39.7069ZM94.1014 60.9927C92.5404 60.9927 91.1684 60.6467 89.9851 59.9548C88.8021 59.2627 87.8798 58.3039 87.2188 57.0794C86.5575 55.8542 86.2271 54.4504 86.2271 52.8668C86.2271 51.2637 86.55 49.8445 87.1964 48.6098C87.8426 47.375 88.7399 46.4089 89.8883 45.7118C91.0368 45.0148 92.3567 44.6661 93.848 44.6661C95.3293 44.6661 96.6046 45.0172 97.6734 45.7192C98.7421 46.4215 99.5649 47.4049 100.142 48.6694C100.718 49.9342 101.007 51.4177 101.007 53.1207V54.0469H89.5678C89.7765 55.3216 90.2909 56.3248 91.1113 57.0567C91.9317 57.7887 92.968 58.1545 94.2209 58.1545C95.225 58.1545 96.0902 58.0051 96.8159 57.7064C97.5414 57.4076 98.2226 56.9546 98.8591 56.3472L100.649 58.5428C98.8688 60.1763 96.6865 60.9927 94.1014 60.9927ZM96.5624 48.5872C95.8563 47.8653 94.9315 47.5041 93.7882 47.5041C92.6746 47.5041 91.7426 47.8728 90.992 48.6096C90.2413 49.3466 89.7664 50.3375 89.5678 51.5822H97.7703C97.6708 50.3076 97.2682 49.3094 96.5622 48.5872H96.5624ZM105.093 47.8031H101.991V45.0397H105.093V40.4687H108.345V45.0397H113.057V47.8031H108.345V54.8088C108.345 55.9737 108.543 56.8053 108.941 57.3031C109.339 57.8012 110.02 58.05 110.984 58.05C111.412 58.05 111.775 58.0329 112.073 57.9979C112.402 57.9586 112.73 57.9112 113.057 57.8558V60.5893C112.689 60.6988 112.274 60.7886 111.812 60.8583C111.33 60.9293 110.844 60.9642 110.358 60.9628C106.848 60.9628 105.093 59.0411 105.093 55.1971V47.8031ZM130 60.6194H126.808V58.4385C126.242 59.2552 125.521 59.885 124.646 60.3279C123.771 60.771 122.777 60.9927 121.663 60.9927C120.291 60.9927 119.075 60.6416 118.017 59.9396C116.958 59.2376 116.125 58.2718 115.519 57.0418C114.912 55.812 114.609 54.4055 114.609 52.8222C114.609 51.2287 114.917 49.8196 115.533 48.5946C116.15 47.3699 117.003 46.4089 118.091 45.7118C119.18 45.0148 120.43 44.6661 121.842 44.6661C122.906 44.6661 123.86 44.8729 124.706 45.2861C125.539 45.69 126.261 46.2927 126.808 47.0412V45.0397H130V60.6194ZM126.749 50.4917C126.401 49.6055 125.851 48.9062 125.101 48.3929C124.35 47.8803 123.482 47.6238 122.498 47.6238C121.106 47.6238 119.998 48.0919 119.173 49.0278C118.347 49.9639 117.935 51.2287 117.935 52.8219C117.935 54.4255 118.332 55.6951 119.128 56.631C119.923 57.5671 121.002 58.0351 122.364 58.0351C123.368 58.0351 124.263 57.7763 125.049 57.2585C125.834 56.7408 126.401 56.0436 126.749 55.1671V50.4917Z" fill="#1C2B33"/>
<path fill-rule="evenodd" clip-rule="evenodd" d="M44.7226 39C42.012 39 39.8935 41.0447 37.9757 43.642C35.3398 40.2806 33.1358 39 30.4978 39C25.1207 39 21 46.0096 21 53.4289C21 58.0718 23.2427 61 26.9987 61C29.7022 61 31.6466 59.7233 35.1033 53.6718C35.1033 53.6718 36.5442 51.1233 37.5353 49.3677C37.8828 49.9294 38.2478 50.5337 38.6329 51.1834L40.2539 53.9145C43.4112 59.2066 45.1702 61 48.358 61C52.0175 61 54.0537 58.0318 54.0537 53.2925C54.0541 45.5243 49.8411 39 44.7226 39ZM32.4674 52.033C29.6649 56.433 28.6953 57.4193 27.1351 57.4193C25.5295 57.4193 24.5751 56.0073 24.5751 53.4896C24.5751 48.1034 27.2564 42.5959 30.4526 42.5959C32.1834 42.5959 33.6301 43.5969 35.8457 46.7739C33.7419 50.0059 32.4674 52.033 32.4674 52.033V52.033ZM43.0444 51.4793L41.1064 48.242C40.619 47.445 40.1149 46.6585 39.5943 45.8829C41.341 43.1826 42.7817 41.8371 44.4954 41.8371C48.0551 41.8371 50.9032 47.087 50.9032 53.5352C50.9032 55.993 50.0992 57.4193 48.434 57.4193C46.8376 57.4193 46.075 56.3633 43.0444 51.4793V51.4793Z" fill="#0064E0"/>
</svg>
